<?xml version="1.0" encoding="UTF-8" standalone="no"?>
<svg
   xmlns:dc="http://purl.org/dc/elements/1.1/"
   xmlns:cc="http://creativecommons.org/ns#"
   xmlns:rdf="http://www.w3.org/1999/02/22-rdf-syntax-ns#"
   xmlns:svg="http://www.w3.org/2000/svg"
   xmlns="http://www.w3.org/2000/svg"
   xmlns:xlink="http://www.w3.org/1999/xlink"
   xmlns:sodipodi="http://sodipodi.sourceforge.net/DTD/sodipodi-0.dtd"
   xmlns:inkscape="http://www.inkscape.org/namespaces/inkscape"
   aria-hidden="true"
   focusable="false"
   data-prefix="fas"
   data-icon="times-circle"
   class="svg-inline--fa fa-times-circle fa-w-16"
   role="img"
   viewBox="0 0 512 512"
   version="1.1"
   id="svg4"
   sodipodi:docname="times-circle-solid.svg"
   inkscape:version="0.92.4 (5da689c313, 2019-01-14)">
  <metadata
     id="metadata10">
    <rdf:RDF>
      <cc:Work
         rdf:about="">
        <dc:format>image/svg+xml</dc:format>
        <dc:type
           rdf:resource="http://purl.org/dc/dcmitype/StillImage" />
      </cc:Work>
    </rdf:RDF>
  </metadata>
  <defs
     id="defs8">
    <linearGradient
       inkscape:collect="always"
       id="linearGradient4546">
      <stop
         style="stop-color:#ff0000;stop-opacity:1;"
         offset="0"
         id="stop4542" />
      <stop
         style="stop-color:#040000;stop-opacity:0.09"
         offset="1"
         id="stop4544" />
    </linearGradient>
    <linearGradient
       inkscape:collect="always"
       xlink:href="#linearGradient4546"
       id="linearGradient4548"
       x1="472.94916"
       y1="479.45764"
       x2="-340.2034"
       y2="-251.66101"
       gradientUnits="userSpaceOnUse" />
  </defs>
  <sodipodi:namedview
     pagecolor="#ffffff"
     bordercolor="#666666"
     borderopacity="1"
     objecttolerance="10"
     gridtolerance="10"
     guidetolerance="10"
     inkscape:pageopacity="0"
     inkscape:pageshadow="2"
     inkscape:window-width="958"
     inkscape:window-height="1018"
     id="namedview6"
     showgrid="false"
     inkscape:zoom="0.4609375"
     inkscape:cx="270.10169"
     inkscape:cy="256"
     inkscape:window-x="-7"
     inkscape:window-y="30"
     inkscape:window-maximized="0"
     inkscape:current-layer="svg4" />
  <path
     fill="currentColor"
     d="M256 8C119 8 8 119 8 256s111 248 248 248 248-111 248-248S393 8 256 8zm121.6 313.1c4.7 4.7 4.7 12.3 0 17L338 377.6c-4.7 4.7-12.3 4.7-17 0L256 312l-65.1 65.6c-4.7 4.7-12.3 4.7-17 0L134.4 338c-4.7-4.7-4.7-12.3 0-17l65.6-65-65.6-65.1c-4.7-4.7-4.7-12.3 0-17l39.6-39.6c4.7-4.7 12.3-4.7 17 0l65 65.7 65.1-65.6c4.7-4.7 12.3-4.7 17 0l39.6 39.6c4.7 4.7 4.7 12.3 0 17L312 256l65.6 65.1z"
     id="path2" />
  <path
     style="fill:#ff2a2a;stroke-width:2.16949153"
     d="M 216.08136,499.68284 C 190.67934,495.37334 170.30224,488.50894 145.0143,475.74263 116.55779,461.37672 97.93119,447.52128 76.620262,424.86764 32.259306,377.71166 9.979661,321.4874 9.979661,256.69537 c 0,-69.52941 23.991771,-127.50668 72.850109,-176.045781 78.17521,-77.664411 199.89275,-93.848245 294.8787,-39.207721 66.17485,38.066987 111.82879,104.747722 122.68158,179.185022 3.94301,27.04437 1.60081,69.91786 -5.26733,96.41655 -6.46361,24.93804 -23.13708,61.10998 -37.34912,81.02639 -54.91677,76.95895 -150.39768,117.10134 -241.69224,101.61301 z m 6.50925,-151.91413 33.67726,-33.62792 33.57542,33.62792 c 27.93571,27.97941 34.63476,33.6279 39.88226,33.6279 5.08043,0 10.67542,-4.29889 28.77201,-22.1069 18.83509,-18.53473 22.46515,-23.18388 22.46515,-28.77202 0,-5.70975 -4.82011,-11.47769 -33.6279,-40.2405 l -33.62792,-33.57542 33.41395,-33.65257 c 18.37765,-18.50893 34.08412,-35.91217 34.90325,-38.67388 1.27406,-4.29546 -2.04887,-8.60744 -22.98804,-29.8305 -18.36273,-18.61168 -25.86225,-24.82353 -30.02112,-24.8665 -4.33696,-0.0448 -12.92646,7.5108 -39.45862,34.70903 l -33.91488,34.76629 -33.67162,-34.70903 c -26.75163,-27.57582 -34.84947,-34.70902 -39.40283,-34.70902 -4.28692,0 -10.95557,5.0541 -26.46246,20.0556 -21.50238,20.80159 -27.85322,29.62395 -25.85565,35.91774 0.64391,2.02878 16.21492,18.70938 34.60224,37.06799 l 33.43149,33.37928 -34.53421,33.87444 c -25.77179,25.27944 -34.52311,35.19525 -34.49045,39.08001 0.0309,3.67154 6.87974,12.14269 23.2408,28.74576 19.42485,19.7122 24.27173,23.5402 29.80584,23.5402 5.6327,0 11.58277,-4.96668 40.28603,-33.6279 z"
     id="path3715"
     inkscape:connector-curvature="0" />
  <path
     style="fill:#ff5555;stroke-width:2.16949153"
     d="M 230.41046,500.50484 C 152.17762,492.25544 77.712421,442.33244 39.588285,372.57374 11.470403,321.12425 3.4697774,252.13577 18.702267,192.47601 42.111102,100.79266 121.81067,29.248024 218.23192,13.362397 c 45.58257,-7.5098341 98.40305,-0.126308 139.9748,19.566414 72.72543,34.450372 122.31602,97.120899 138.94478,175.592679 4.15859,19.62454 4.06982,69.30893 -0.16727,93.60604 -3.67739,21.08776 -14.63632,51.37152 -26.33018,72.76061 -38.06794,69.62939 -111.39142,117.44405 -192.63929,125.62117 -12.99989,1.30836 -25.17508,2.24896 -27.05599,2.09024 -1.88088,-0.15859 -11.12764,-1.10134 -20.54833,-2.09471 z M 209.07461,362.08586 c 11.60964,-10.62092 26.87692,-25.20578 33.92727,-32.41082 l 12.81883,-13.10004 31.65575,30.50177 c 17.41067,16.77599 33.78037,31.48475 36.37712,32.68615 8.22838,3.80691 14.52948,0.11802 36.08836,-21.1279 27.06747,-26.67444 27.08914,-26.96873 3.87836,-52.64672 -9.42831,-10.43051 -23.99158,-25.69212 -32.36282,-33.91467 l -15.22044,-14.95009 33.44759,-35.61696 c 18.39616,-19.58932 33.44757,-36.96493 33.44757,-38.61246 0,-4.11751 -26.03483,-33.27131 -39.47596,-44.20517 -6.05355,-4.92435 -13.00276,-8.95336 -15.44268,-8.95336 -2.82235,0 -16.82911,12.30578 -38.50242,33.82666 l -34.0662,33.82666 -33.36166,-33.82666 c -28.19322,-28.58617 -34.36067,-33.82666 -39.81011,-33.82666 -5.32448,0 -10.52039,4.11301 -29.80997,23.59712 -16.70699,16.87548 -23.34358,25.0637 -23.29858,28.74576 0.0446,3.64769 9.79344,15.26802 33.44087,39.86051 l 33.37794,34.71187 -33.44087,33.78022 c -21.04417,21.25772 -33.44087,35.41122 -33.44087,38.17999 0,5.12538 25.18882,34.4658 38.91168,45.32508 5.18527,4.10327 11.7509,7.46047 14.59028,7.46047 3.46939,0 12.08532,-6.33324 26.27096,-19.31075 z"
     id="path3717"
     inkscape:connector-curvature="0" />
  <path
     style="fill:url(#linearGradient4548);stroke-width:2.16949153;fill-opacity:1"
     d="M 232.35254,500.34864 C 167.28702,493.13812 104.82121,458.65988 63.199746,406.98414 45.192511,384.62698 27.207864,348.7803 19.341225,319.5661 c -5.401425,-20.05918 -5.841886,-24.88459 -5.841886,-64 0,-38.74951 0.473706,-44.05897 5.63626,-63.17317 C 45.384242,95.208099 130.62099,23.327883 232.89492,12.129527 c 40.95268,-4.484064 86.66734,3.537012 125.57051,22.032551 28.04626,13.333893 45.01463,24.914153 66.28944,45.239988 34.62828,33.083664 56.3571,70.161254 69.54644,118.672514 4.09337,15.05565 4.6945,22.67532 4.53567,57.49152 -0.16423,36.00905 -0.76846,42.36616 -5.87624,61.83051 -7.71736,29.40869 -27.41509,68.82189 -45.80007,91.64145 -23.09797,28.66935 -54.8321,53.33157 -88.84639,69.04715 -37.81276,17.47056 -88.44956,26.4205 -125.96174,22.26343 z M 191.41689,377.23811 c 3.73624,-2.27825 19.4764,-16.43054 34.97814,-31.44952 15.50173,-15.01897 28.90811,-27.30723 29.79194,-27.30723 0.88385,0 14.8312,12.77077 30.99413,28.37953 16.16293,15.60873 31.6654,29.87229 34.44992,31.69677 7.54393,4.94297 13.88271,2.26744 31.80225,-13.42332 17.03238,-14.91395 27.52944,-28.08027 27.52944,-34.52978 0,-5.46124 -17.61128,-26.8247 -42.15079,-51.1312 -11.42046,-11.31204 -20.76446,-21.4302 -20.76446,-22.48481 0,-1.05461 10.1061,-12.46403 22.45801,-25.35424 30.92454,-32.27225 43.31008,-47.1237 41.98823,-50.34791 -0.61722,-1.50549 -6.61118,-9.33439 -13.31992,-17.39756 -13.74676,-16.52211 -34.96094,-34.14983 -41.10028,-34.15188 -2.35047,-7.9e-4 -18.4156,14.17963 -37.95317,33.50065 l -33.87756,33.50202 -33.91602,-33.50202 c -27.81765,-27.47809 -35.02957,-33.50202 -40.10903,-33.50202 -4.99954,0 -10.69504,4.54744 -29.55452,23.59712 -14.54588,14.69257 -23.36151,25.28808 -23.36151,28.0782 0,4.23784 31.68195,40.60101 55.07879,63.21707 5.50328,5.31962 10.00596,10.60231 10.00596,11.73929 0,1.13701 -14.64407,16.98029 -32.54237,35.20731 -17.94516,18.27476 -32.54238,34.91571 -32.54238,37.09859 0,4.61648 29.12517,39.07402 38.25139,45.25464 12.62272,8.54856 14.78206,8.8481 23.86381,3.3103 z"
     id="path3719"
     inkscape:connector-curvature="0" />
</svg>
