<?xml version="1.0" encoding="UTF-8" standalone="no"?>
<svg
   xmlns:dc="http://purl.org/dc/elements/1.1/"
   xmlns:cc="http://creativecommons.org/ns#"
   xmlns:rdf="http://www.w3.org/1999/02/22-rdf-syntax-ns#"
   xmlns:svg="http://www.w3.org/2000/svg"
   xmlns="http://www.w3.org/2000/svg"
   xmlns:xlink="http://www.w3.org/1999/xlink"
   xmlns:sodipodi="http://sodipodi.sourceforge.net/DTD/sodipodi-0.dtd"
   xmlns:inkscape="http://www.inkscape.org/namespaces/inkscape"
   aria-hidden="true"
   focusable="false"
   data-prefix="fas"
   data-icon="check-circle"
   class="svg-inline--fa fa-check-circle fa-w-16"
   role="img"
   viewBox="0 0 512 512"
   version="1.1"
   id="svg4"
   sodipodi:docname="check-circle-solid.svg"
   inkscape:version="0.92.4 (5da689c313, 2019-01-14)">
  <metadata
     id="metadata10">
    <rdf:RDF>
      <cc:Work
         rdf:about="">
        <dc:format>image/svg+xml</dc:format>
        <dc:type
           rdf:resource="http://purl.org/dc/dcmitype/StillImage" />
      </cc:Work>
    </rdf:RDF>
  </metadata>
  <defs
     id="defs8">
    <linearGradient
       inkscape:collect="always"
       id="linearGradient3737">
      <stop
         style="stop-color:#00ff00;stop-opacity:1;"
         offset="0"
         id="stop3733" />
      <stop
         style="stop-color:#00ff00;stop-opacity:0;"
         offset="1"
         id="stop3735" />
    </linearGradient>
    <linearGradient
       inkscape:collect="always"
       xlink:href="#linearGradient3737"
       id="linearGradient3739"
       x1="448"
       y1="408.94916"
       x2="-173.55933"
       y2="-104.1356"
       gradientUnits="userSpaceOnUse" />
  </defs>
  <sodipodi:namedview
     pagecolor="#ffffff"
     bordercolor="#666666"
     borderopacity="1"
     objecttolerance="10"
     gridtolerance="10"
     guidetolerance="10"
     inkscape:pageopacity="0"
     inkscape:pageshadow="2"
     inkscape:window-width="1904"
     inkscape:window-height="1011"
     id="namedview6"
     showgrid="false"
     inkscape:zoom="0.921875"
     inkscape:cx="285.88274"
     inkscape:cy="148.84942"
     inkscape:window-x="0"
     inkscape:window-y="30"
     inkscape:window-maximized="0"
     inkscape:current-layer="svg4" />
  <path
     fill="currentColor"
     d="M504 256c0 136.967-111.033 248-248 248S8 392.967 8 256 119.033 8 256 8s248 111.033 248 248zM227.314 387.314l184-184c6.248-6.248 6.248-16.379 0-22.627l-22.627-22.627c-6.248-6.249-16.379-6.249-22.628 0L216 308.118l-70.059-70.059c-6.248-6.248-16.379-6.248-22.628 0l-22.627 22.627c-6.248 6.248-6.248 16.379 0 22.627l104 104c6.249 6.249 16.379 6.249 22.628.001z"
     id="path2" />
  <path
     style="fill:url(#linearGradient3739);stroke-width:2.16949153;fill-opacity:1"
     d="M 216.34038,499.82809 C 166.65426,491.41888 117.98437,466.27883 81.983527,430.42712 3.1305621,351.90079 -13.407306,231.50273 41.348868,134.60091 106.14477,19.931824 249.27427,-23.387106 367.26693,35.960018 462.52329,83.87141 516.73058,189.85668 499.69579,294.88304 483.01509,397.72631 403.42578,479.231 300.64017,498.72909 c -18.33903,3.47887 -66.5265,4.10706 -84.29979,1.099 z M 318.96754,296.49356 c 114.29198,-114.18761 107.17067,-102.9299 81.10097,-128.20827 -25.1974,-24.43256 -16.72613,-29.27171 -107.58298,61.45594 l -77.11869,77.00906 -36.82559,-36.87346 c -45.32615,-45.38505 -43.72899,-44.88943 -67.63124,-20.98716 -24.527728,24.52772 -26.74507,19.64572 38.89338,85.63284 30.12881,30.28886 56.7322,55.8981 59.11864,56.90943 2.38644,1.01133 6.26625,1.90067 8.62179,1.9763 2.84668,0.0913 36.85631,-32.40624 101.42372,-96.91468 z"
     id="path3715"
     inkscape:connector-curvature="0" />
</svg>
