<?xml version="1.0" encoding="UTF-8" standalone="no"?>
<svg
        xmlns:osb="http://www.openswatchbook.org/uri/2009/osb"
        xmlns:dc="http://purl.org/dc/elements/1.1/"
        xmlns:cc="http://creativecommons.org/ns#"
        xmlns:rdf="http://www.w3.org/1999/02/22-rdf-syntax-ns#"
        xmlns:sodipodi="http://sodipodi.sourceforge.net/DTD/sodipodi-0.dtd"
        xmlns:inkscape="http://www.inkscape.org/namespaces/inkscape"
        xmlns="http://www.w3.org/2000/svg"
        sodipodi:docname="plm_companion_save16_dark.svg"
        inkscape:version="1.0.2 (e86c870879, 2021-01-15, custom)"
        id="svg2303"
        version="1.1"
        viewBox="0 0 4.2333332 4.2333335"
        height="16"
        width="16">
  <title
          id="title2993">PLM Companion Save Icon
  </title>
  <defs
          id="defs2297">
    <inkscape:path-effect
            effect="powerclip"
            id="path-effect5132"
            is_visible="true"
            lpeversion="1"
            inverse="true"
            flatten="false"
            hide_clip="false"/>
    <inkscape:path-effect
            effect="powerclip"
            id="path-effect5128"
            is_visible="true"
            lpeversion="1"
            inverse="true"
            flatten="false"
            hide_clip="false"/>
    <inkscape:path-effect
            effect="powerclip"
            id="path-effect5124"
            is_visible="true"
            lpeversion="1"
            inverse="true"
            flatten="false"
            hide_clip="false"/>
    <inkscape:path-effect
            effect="powerclip"
            id="path-effect5120"
            is_visible="true"
            lpeversion="1"
            inverse="true"
            flatten="false"
            hide_clip="false"/>
    <inkscape:path-effect
            effect="powerclip"
            id="path-effect4981"
            is_visible="true"
            lpeversion="1"
            inverse="true"
            flatten="false"
            hide_clip="false"/>
    <linearGradient
            id="linearGradient3529"
            osb:paint="solid">
      <stop
              style="stop-color:#ffffff;stop-opacity:1;"
              offset="0"
              id="stop3527"/>
    </linearGradient>
    <linearGradient
            id="linearGradient2848"
            osb:paint="solid">
      <stop
              style="stop-color:#000000;stop-opacity:1;"
              offset="0"
              id="stop2846"/>
    </linearGradient>
    <filter
            inkscape:collect="always"
            style="color-interpolation-filters:sRGB"
            id="filter3861"
            x="-1.275e-06"
            width="1.0000025"
            y="-1.1333334e-06"
            height="1.0000023">
      <feGaussianBlur
              inkscape:collect="always"
              stdDeviation="1.1244791e-06"
              id="feGaussianBlur3863"/>
    </filter>
    <clipPath
            clipPathUnits="userSpaceOnUse"
            id="clipPath4977">
      <path
              id="lpe_path-effect4981"
              style="display:inline;opacity:0.24359;mix-blend-mode:normal;fill:#ffffff;fill-opacity:1;stroke:none;stroke-width:0.264583;stroke-opacity:1;filter:url(#filter3861)"
              class="powerclip"
              d="M -3.4140625,-3.4140625 H 7.6386719 V 7.6386719 H -3.4140625 Z M 2.1166668,1.8520833 V 4.233333 H 4.2333333 V 1.8520833 Z"/>
    </clipPath>
    <clipPath
            clipPathUnits="userSpaceOnUse"
            id="clipPath5104">
      <path
              id="lpe_path-effect5120"
              style="display:inline;mix-blend-mode:normal;fill:#ffffff;fill-opacity:1;stroke:none;stroke-width:0.264583;stroke-opacity:1;filter:url(#filter3861)"
              class="powerclip"
              d="M -3.1694458,-1.5485369 H 7.3825076 V 8.9533035 H -3.1694458 Z M 2.1166668,1.8520837 V 4.2333333 H 4.2333333 V 1.8520837 Z"/>
    </clipPath>
    <clipPath
            clipPathUnits="userSpaceOnUse"
            id="clipPath5108">
      <path
              id="lpe_path-effect5124"
              style="display:inline;mix-blend-mode:normal;fill:#ffffff;fill-opacity:1;stroke:none;stroke-width:0.264583;stroke-opacity:1;filter:url(#filter3861)"
              class="powerclip"
              d="M -1.5819457,-3.136037 H 8.9700077 V 7.3658034 H -1.5819457 Z M 2.1166668,1.8520837 V 4.2333333 H 4.2333333 V 1.8520837 Z"/>
    </clipPath>
    <clipPath
            clipPathUnits="userSpaceOnUse"
            id="clipPath5112">
      <path
              id="lpe_path-effect5128"
              style="display:inline;mix-blend-mode:normal;fill:#ffffff;fill-opacity:1;stroke:none;stroke-width:0.264583;stroke-opacity:1;filter:url(#filter3861)"
              class="powerclip"
              d="M -2.1856945,-2.1525808 H 8.6251767 V 8.6582904 H -2.1856945 Z M 2.1166668,1.8520837 V 4.2333333 H 4.2333333 V 1.8520837 Z"/>
    </clipPath>
    <clipPath
            clipPathUnits="userSpaceOnUse"
            id="clipPath5116">
      <path
              id="lpe_path-effect5132"
              style="display:inline;mix-blend-mode:normal;fill:#ffffff;fill-opacity:1;stroke:none;stroke-width:0.264583;stroke-opacity:1;filter:url(#filter3861)"
              class="powerclip"
              d="M -4.6033329,-4.6033329 H 8.836666 V 8.836666 H -4.6033329 Z M 2.1166668,1.8520837 V 4.2333333 H 4.2333333 V 1.8520837 Z"/>
    </clipPath>
  </defs>
  <sodipodi:namedview
          inkscape:window-maximized="0"
          inkscape:window-y="74"
          inkscape:window-x="2149"
          inkscape:window-height="1041"
          inkscape:window-width="1560"
          showguides="false"
          units="px"
          showgrid="true"
          inkscape:document-rotation="0"
          inkscape:current-layer="layer2"
          inkscape:document-units="px"
          inkscape:cy="13.2132"
          inkscape:cx="4.5473923"
          inkscape:zoom="22.4"
          inkscape:pageshadow="2"
          inkscape:pageopacity="0.0"
          borderopacity="1.0"
          bordercolor="#666666"
          pagecolor="#ffffff"
          id="base">
    <inkscape:grid
            id="grid2868"
            type="xygrid"/>
    <inkscape:grid
            empopacity="0.25098039"
            empcolor="#000000"
            opacity="0.1254902"
            color="#000000"
            spacingy="2.1166667"
            spacingx="2.1166667"
            originy="2.1166667"
            originx="2.1166666"
            id="grid2870"
            type="xygrid"/>
  </sodipodi:namedview>
  <metadata
          id="metadata2300">
    <rdf:RDF>
      <cc:Work
              rdf:about="">
        <dc:format>image/svg+xml</dc:format>
        <dc:type
                rdf:resource="http://purl.org/dc/dcmitype/StillImage"/>
        <dc:title>PLM Companion Save Icon</dc:title>
      </cc:Work>
    </rdf:RDF>
  </metadata>
  <g
          style="display:none"
          id="layer1"
          inkscape:groupmode="layer"
          inkscape:label="bcg">
    <path
            id="path2874"
            d="m 0.26458333,0.26458333 c 1.23498677,2.6458e-4 3.70416667,0 3.70416667,0 V 3.96875 H 0.26458333 Z"
            style="fill:#0000ff;fill-opacity:0.08094;stroke:none;stroke-width:0.265;stroke-linecap:butt;stroke-linejoin:miter;stroke-miterlimit:4;stroke-dasharray:none;stroke-opacity:1"/>
  </g>
  <g
          inkscape:label="img"
          id="layer2"
          inkscape:groupmode="layer"
          style="display:inline">
    <path
            id="path2887"
            clip-path="url(#clipPath5116)"
            d="M 3.7041665,2.1166666 A 1.5875,1.5875 0 0 1 2.1166666,3.7041665 1.5875,1.5875 0 0 1 0.52916658,2.1166666 1.5875,1.5875 0 0 1 2.1166666,0.52916658 1.5875,1.5875 0 0 1 3.7041665,2.1166666 Z"
            style="fill:none;fill-opacity:1;stroke:#afb1b3;stroke-width:0.264999;stroke-linecap:round;stroke-miterlimit:4;stroke-dasharray:none;stroke-opacity:1"/>
    <g
            id="path2889"
            style="opacity:1;fill:#afb1b3;fill-opacity:1"
            clip-path="url(#clipPath4977)">
      <path
              style="color:#000000;font-style:normal;font-variant:normal;font-weight:normal;font-stretch:normal;font-size:medium;line-height:normal;font-family:sans-serif;font-variant-ligatures:normal;font-variant-position:normal;font-variant-caps:normal;font-variant-numeric:normal;font-variant-alternates:normal;font-variant-east-asian:normal;font-feature-settings:normal;font-variation-settings:normal;text-indent:0;text-align:start;text-decoration:none;text-decoration-line:none;text-decoration-style:solid;text-decoration-color:#000000;letter-spacing:normal;word-spacing:normal;text-transform:none;writing-mode:lr-tb;direction:ltr;text-orientation:mixed;dominant-baseline:auto;baseline-shift:baseline;text-anchor:start;white-space:normal;shape-padding:0;shape-margin:0;inline-size:0;clip-rule:nonzero;display:inline;overflow:visible;visibility:visible;isolation:auto;mix-blend-mode:normal;color-interpolation:sRGB;color-interpolation-filters:linearRGB;solid-color:#000000;solid-opacity:1;vector-effect:none;fill:#afb1b3;fill-opacity:1;fill-rule:nonzero;stroke:none;stroke-width:0.351396;stroke-linecap:round;stroke-linejoin:miter;stroke-miterlimit:4;stroke-dasharray:none;stroke-dashoffset:0;stroke-opacity:1;color-rendering:auto;image-rendering:auto;shape-rendering:auto;text-rendering:auto;enable-background:accumulate;stop-color:#000000;stop-opacity:1"
              d="m 2.4633346,2.1124907 c 0,0.1937657 -0.1570782,0.3508439 -0.3508439,0.3508439 -0.1937658,0 -0.350844,-0.1570782 -0.350844,-0.3508439 0,-0.1937658 0.1570782,-0.350844 0.350844,-0.350844 0.1937657,0 0.3508439,0.1570782 0.3508439,0.350844 z"
              id="path4973"/>
      <path
              style="color:#000000;font-style:normal;font-variant:normal;font-weight:normal;font-stretch:normal;font-size:medium;line-height:normal;font-family:sans-serif;font-variant-ligatures:normal;font-variant-position:normal;font-variant-caps:normal;font-variant-numeric:normal;font-variant-alternates:normal;font-variant-east-asian:normal;font-feature-settings:normal;font-variation-settings:normal;text-indent:0;text-align:start;text-decoration:none;text-decoration-line:none;text-decoration-style:solid;text-decoration-color:#000000;letter-spacing:normal;word-spacing:normal;text-transform:none;writing-mode:lr-tb;direction:ltr;text-orientation:mixed;dominant-baseline:auto;baseline-shift:baseline;text-anchor:start;white-space:normal;shape-padding:0;shape-margin:0;inline-size:0;clip-rule:nonzero;display:inline;overflow:visible;visibility:visible;isolation:auto;mix-blend-mode:normal;color-interpolation:sRGB;color-interpolation-filters:linearRGB;solid-color:#000000;solid-opacity:1;vector-effect:none;fill:#afb1b3;fill-opacity:1;fill-rule:nonzero;stroke:none;stroke-linecap:round;stroke-linejoin:miter;stroke-miterlimit:4;stroke-dasharray:none;stroke-dashoffset:0;stroke-opacity:1;color-rendering:auto;image-rendering:auto;shape-rendering:auto;text-rendering:auto;enable-background:accumulate;stop-color:#000000;stop-opacity:1"
              d="m 2.1132812,1.5859375 c -0.2887199,0 -0.5273437,0.2386238 -0.5273437,0.5273437 0,0.28872 0.2386238,0.5253907 0.5273437,0.5253907 0.28872,0 0.5253907,-0.2366707 0.5253907,-0.5253907 0,-0.2887199 -0.2366707,-0.5273437 -0.5253907,-0.5273437 z m 0,0.3515625 c 0.098812,0 0.1738282,0.07697 0.1738282,0.1757812 0,0.098812 -0.075017,0.1738282 -0.1738282,0.1738282 -0.098811,0 -0.1757812,-0.075017 -0.1757812,-0.1738282 0,-0.098811 0.07697,-0.1757812 0.1757812,-0.1757812 z"
              id="path4975"/>
    </g>
    <path
            id="path2889-2"
            style="fill:#afb1b3;fill-opacity:1;stroke:#afb1b3;stroke-width:0.266343;stroke-linecap:round;stroke-miterlimit:4;stroke-dasharray:none;stroke-opacity:1"
            d="M 1.2971881,1.0025542 A 0.25973514,0.27226338 0 0 1 1.0374529,1.2748176 0.25973514,0.27226338 0 0 1 0.7777178,1.0025542 0.25973514,0.27226338 0 0 1 1.0374529,0.7302908 0.25973514,0.27226338 0 0 1 1.2971881,1.0025542 Z"/>
    <path
            id="path2889-2-3"
            style="fill:#afb1b3;fill-opacity:1;stroke:#afb1b3;stroke-width:0.266388;stroke-linecap:round;stroke-miterlimit:4;stroke-dasharray:none;stroke-opacity:1"
            d="M 3.489003,0.99420154 A 0.26806551,0.2638894 0 0 1 3.2209375,1.2580909 0.26806551,0.2638894 0 0 1 2.952872,0.99420154 0.26806551,0.2638894 0 0 1 3.2209375,0.73031214 0.26806551,0.2638894 0 0 1 3.489003,0.99420154 Z"/>
    <path
            id="path2889-2-5"
            clip-path="url(#clipPath5112)"
            d="M 3.4898897,3.2528548 A 0.27014863,0.27014861 0 0 1 3.2197411,3.5230034 0.27014863,0.27014861 0 0 1 2.9495925,3.2528548 0.27014863,0.27014861 0 0 1 3.2197411,2.9827062 0.27014863,0.27014861 0 0 1 3.4898897,3.2528548 Z"
            style="fill:#6e6e6e;fill-opacity:1;stroke:#6e6e6e;stroke-width:0.270574;stroke-linecap:round;stroke-miterlimit:4;stroke-dasharray:none;stroke-opacity:1"/>
    <path
            id="path2889-2-4"
            style="fill:#afb1b3;fill-opacity:1;stroke:#afb1b3;stroke-width:0.26068;stroke-linecap:round;stroke-miterlimit:4;stroke-dasharray:none;stroke-opacity:1"
            d="M 1.2666122,3.260011 A 0.25003916,0.27091956 0 0 1 1.0165731,3.5309305 0.25003916,0.27091956 0 0 1 0.76653391,3.260011 0.25003916,0.27091956 0 0 1 1.0165731,2.9890914 0.25003916,0.27091956 0 0 1 1.2666122,3.260011 Z"/>
    <path
            id="path2889-28"
            clip-path="url(#clipPath5108)"
            d="M 3.8822487,2.1148832 A 0.18821773,0.16316122 0 0 1 3.694031,2.2780444 0.18821773,0.16316122 0 0 1 3.5058133,2.1148832 0.18821773,0.16316122 0 0 1 3.694031,1.951722 0.18821773,0.16316122 0 0 1 3.8822487,2.1148832 Z"
            style="fill:#6e6e6e;fill-opacity:1;stroke:#6e6e6e;stroke-width:0.175518;stroke-linecap:round;stroke-miterlimit:4;stroke-dasharray:none;stroke-opacity:1"/>
    <path
            id="path2889-28-4"
            clip-path="url(#clipPath5104)"
            d="M 2.2947486,3.7023833 A 0.18821773,0.16316122 0 0 1 2.1065309,3.8655445 0.18821773,0.16316122 0 0 1 1.9183132,3.7023833 0.18821773,0.16316122 0 0 1 2.1065309,3.5392221 0.18821773,0.16316122 0 0 1 2.2947486,3.7023833 Z"
            style="fill:#afb1b3;fill-opacity:1;stroke:#afb1b3;stroke-width:0.175518;stroke-linecap:round;stroke-miterlimit:4;stroke-dasharray:none;stroke-opacity:1"/>
    <path
            id="path2889-28-3"
            style="fill:#afb1b3;fill-opacity:1;stroke:#afb1b3;stroke-width:0.175518;stroke-linecap:round;stroke-miterlimit:4;stroke-dasharray:none;stroke-opacity:1"
            d="M 0.70724866,2.1148832 A 0.18821773,0.16316122 0 0 1 0.51903093,2.2780444 0.18821773,0.16316122 0 0 1 0.3308132,2.1148832 0.18821773,0.16316122 0 0 1 0.51903093,1.951722 0.18821773,0.16316122 0 0 1 0.70724866,2.1148832 Z"/>
    <path
            id="path2889-28-8"
            style="fill:#afb1b3;fill-opacity:1;stroke:#afb1b3;stroke-width:0.175518;stroke-linecap:round;stroke-miterlimit:4;stroke-dasharray:none;stroke-opacity:1"
            d="M 2.2947486,0.52738315 A 0.18821773,0.16316122 0 0 1 2.1065309,0.69054437 0.18821773,0.16316122 0 0 1 1.9183132,0.52738315 0.18821773,0.16316122 0 0 1 2.1065309,0.36422193 0.18821773,0.16316122 0 0 1 2.2947486,0.52738315 Z"/>
  </g>
  <g
          inkscape:groupmode="layer"
          id="layer4"
          inkscape:label="clean"
          style="display:none;mix-blend-mode:normal;filter:url(#filter3861)">
    <rect
            style="opacity:1;fill:#ffffff;fill-opacity:1;stroke:none;stroke-width:0.264583;stroke-opacity:1"
            id="rect3779"
            width="2.1166666"
            height="2.3812497"
            x="2.1166666"
            y="1.8520833"/>
  </g>
  <g
          inkscape:groupmode="layer"
          id="layer3"
          inkscape:label="icon"
          style="display:inline">
    <path
            id="rect85"
            style="display:inline;fill:#afb1b3;fill-opacity:1;fill-rule:evenodd;stroke-width:0.999999"
            d="M 9 8 L 9 15 L 15 15 L 15 8 L 9 8 z M 10 9 L 14 9 L 14 10 L 10 10 L 10 9 z M 10 11 L 14 11 L 14 12 L 10 12 L 10 11 z M 10 13 L 14 13 L 14 14 L 10 14 L 10 13 z "
            transform="scale(0.26458333)"/>
  </g>
</svg>
